<svg id="Capa_1" data-name="Capa 1" xmlns="http://www.w3.org/2000/svg" viewBox="0 0 25.87 18.96"><defs><style>.cls-1{fill:#007ec7;}.cls-2{fill:#41a0da;}.cls-3{fill:#95c11f;}</style></defs><title>zalla</title><polyline class="cls-1" points="20.12 0.05 20.12 0 25.87 0 25.87 0.09 25.83 0.09 25.83 0.14 25.78 0.14 25.78 0.19 25.73 0.19 25.73 0.23 25.69 0.23 25.69 0.28 25.64 0.28 25.64 0.37 25.59 0.37 25.59 0.42 25.55 0.42 25.55 0.47 25.5 0.47 25.5 0.51 25.46 0.51 25.46 0.56 25.41 0.56 25.41 0.65 25.36 0.65 25.36 0.7 25.32 0.7 25.32 0.74 25.27 0.74 25.27 0.79 25.22 0.79 25.22 0.83 25.18 0.83 25.18 0.93 25.13 0.93 25.13 0.97 25.09 0.97 25.09 1.02 25.04 1.02 25.04 1.07 24.99 1.07 24.99 1.11 24.95 1.11 24.95 1.21 24.9 1.21 24.9 1.25 24.85 1.25 24.85 1.3 24.81 1.3 24.81 1.35 24.76 1.35 24.76 1.39 24.71 1.39 24.71 1.48 24.67 1.48 24.67 1.53 24.62 1.53 24.62 1.58 24.57 1.58 24.57 1.62 24.53 1.62 24.53 1.67 24.48 1.67 24.48 1.72 24.44 1.72 24.44 1.81 24.39 1.81 24.39 1.85 24.34 1.85 24.34 1.9 24.3 1.9 24.3 1.95 24.25 1.95 24.25 1.99 24.2 1.99 24.2 2.09 24.16 2.09 24.16 2.13 24.11 2.13 24.11 2.18 24.07 2.18 24.07 2.23 24.02 2.23 24.02 2.27 23.97 2.27 23.97 2.37 23.93 2.37 23.93 2.41 23.88 2.41 23.88 2.46 23.83 2.46 23.83 2.5 23.79 2.5 23.79 2.55 23.74 2.55 23.74 2.64 23.69 2.64 23.69 2.69 23.65 2.69 23.65 2.74 23.6 2.74 23.6 2.78 23.55 2.78 23.55 2.83 23.51 2.83 23.51 2.92 23.46 2.92 23.46 2.97 23.41 2.97 23.41 3.02 23.37 3.02 23.37 3.06 23.32 3.06 23.32 3.11 23.28 3.11 23.28 3.15 23.23 3.15 23.23 3.25 23.18 3.25 23.18 3.29 23.14 3.29 23.14 3.34 23.09 3.34 23.09 3.38 23.05 3.38 23.05 3.43 23 3.43 23 3.52 22.95 3.52 22.95 3.57 22.91 3.57 22.91 3.62 22.86 3.62 22.86 3.66 22.81 3.66 22.81 3.71 22.77 3.71 22.77 3.8 22.72 3.8 22.72 3.85 22.67 3.85 22.67 3.9 22.63 3.9 22.63 3.94 22.58 3.94 22.58 3.99 22.53 3.99 22.53 4.08 22.49 4.08 22.49 4.13 22.44 4.13 22.44 4.17 22.4 4.17 22.4 4.22 22.35 4.22 22.35 4.27 22.3 4.27 22.3 4.36 22.26 4.36 22.26 4.41 22.21 4.41 22.21 4.45 22.16 4.45 22.16 4.5 22.12 4.5 22.12 4.54 22.07 4.54 22.07 4.59 22.02 4.59 22.02 4.68 21.98 4.68 21.98 4.73 21.93 4.73 21.93 4.78 21.89 4.78 21.89 4.82 21.84 4.82 21.84 4.87 21.79 4.87 21.79 4.96 21.75 4.96 21.75 5.01 21.7 5.01 21.7 5.05 21.65 5.05 21.65 5.1 21.61 5.1 21.61 5.15 21.56 5.15 21.56 5.24 21.52 5.24 21.52 5.29 21.47 5.29 21.47 5.33 21.42 5.33 21.42 5.38 21.38 5.38 21.38 5.43 21.33 5.43 21.33 5.52 21.28 5.52 21.28 5.56 21.23 5.56 21.23 5.61 21.19 5.61 21.19 5.66 21.14 5.66 21.14 5.7 21.1 5.7 21.1 5.8 21.05 5.8 21.05 5.84 21 5.84 21 5.89 20.96 5.89 20.96 5.94 20.91 5.94 20.91 5.98 20.86 5.98 20.86 6.03 20.82 6.03 20.82 6.12 20.77 6.12 20.77 6.17 20.73 6.17 20.73 6.21 20.68 6.21 20.68 6.26 20.63 6.26 20.63 6.31 20.59 6.31 20.59 6.4 20.54 6.4 20.54 6.45 20.5 6.45 20.5 6.49 20.45 6.49 20.45 6.54 20.4 6.54 20.4 6.58 20.35 6.58 20.35 6.68 20.31 6.68 20.31 6.72 20.26 6.72 20.26 6.77 20.22 6.77 20.22 6.82 20.17 6.82 20.17 6.86 20.12 6.86 20.12 6.96 20.08 6.96 20.08 7 20.03 7 20.03 7.05 19.98 7.05 19.98 7.09 19.94 7.09 19.94 7.14 19.89 7.14 19.89 7.23 19.84 7.23 19.84 7.28 19.8 7.28 19.8 7.33 19.75 7.33 19.75 7.37 19.7 7.37 19.7 7.42 19.66 7.42 19.66 7.47 19.61 7.47 19.61 7.56 19.57 7.56 19.57 7.61 19.52 7.61 19.52 7.65 19.47 7.65 19.47 7.7 19.43 7.7 19.43 7.74 19.38 7.74 19.38 7.84 19.34 7.84 19.34 7.88 19.29 7.88 19.29 7.93 19.24 7.93 19.24 7.98 19.2 7.98 19.2 8.02 19.15 8.02 19.15 8.12 19.1 8.12 19.1 8.16 19.06 8.16 19.06 8.21 19.01 8.21 19.01 8.25 18.96 8.25 18.96 8.3 18.92 8.3 18.92 8.39 18.87 8.39 18.87 8.44 18.82 8.44 18.82 8.48 18.78 8.48 18.78 8.53 18.73 8.53 18.73 8.58 18.69 8.58 18.69 8.67 18.64 8.67 18.64 8.72 18.59 8.72 18.59 8.76 18.55 8.76 18.55 8.81 18.5 8.81 18.5 8.86 18.45 8.86 18.45 8.9 18.41 8.9 18.41 9 18.36 9 18.36 9.04 18.32 9.04 18.32 9.09 18.27 9.09 18.27 9.13 18.22 9.13 18.22 9.18 18.18 9.18 18.18 9.27 18.13 9.27 18.13 9.32 18.08 9.32 18.08 9.37 18.04 9.37 18.04 9.41 17.99 9.41 17.99 9.46 17.94 9.46 17.94 9.55 17.9 9.55 17.9 9.6 17.85 9.6 17.85 9.64 17.8 9.64 17.8 9.69 17.76 9.69 17.76 9.74 17.71 9.74 17.71 9.83 17.67 9.83 17.67 9.88 17.62 9.88 17.62 9.92 17.57 9.92 17.57 9.97 17.53 9.97 17.53 10.02 17.48 10.02 17.48 10.11 17.43 10.11 17.43 10.15 17.39 10.15 17.39 10.2 17.34 10.2 17.34 10.25 17.3 10.25 17.3 10.29 17.25 10.29 17.25 10.34 17.2 10.34 17.2 10.43 17.16 10.43 17.16 10.48 17.11 10.48 17.11 10.53 17.06 10.53 17.06 10.57 17.02 10.57 17.02 10.62 16.97 10.62 16.97 10.71 16.92 10.71 16.92 10.76 16.88 10.76 16.88 10.8 16.83 10.8 16.83 10.85 16.79 10.85 16.79 10.9 16.74 10.9 16.74 10.99 16.69 10.99 16.69 11.04 16.65 11.04 16.65 11.08 16.6 11.08 16.6 11.13 16.55 11.13 16.55 11.18 16.51 11.18 16.51 11.27 16.46 11.27 16.46 11.31 16.41 11.31 16.41 11.36 16.37 11.36 16.37 11.41 16.32 11.41 16.32 11.45 16.27 11.45 16.27 11.55 16.23 11.55 16.23 11.59 16.18 11.59 16.18 11.64 16.14 11.64 16.14 11.69 16.09 11.69 16.09 11.73 16.04 11.73 16.04 11.78 16 11.78 16 11.87 15.95 11.87 15.95 11.92 15.9 11.92 15.9 11.96 15.86 11.96 15.86 12.01 15.81 12.01 15.81 12.06 15.77 12.06 15.77 12.15 15.72 12.15 15.72 12.2 15.67 12.2 15.67 12.24 15.63 12.24 15.63 12.29 15.58 12.29 15.58 12.33 15.53 12.33 15.53 12.43 15.49 12.43 15.49 12.47 15.44 12.47 15.44 12.52 15.39 12.52 15.39 12.57 15.35 12.57 15.35 12.61 15.3 12.61 15.3 12.71 15.26 12.71 15.26 12.75 15.21 12.75 15.21 12.8 15.16 12.8 15.16 12.85 15.12 12.85 15.12 12.89 15.07 12.89 15.07 12.98 15.02 12.98 15.02 13.03 14.98 13.03 14.98 13.08 14.93 13.08 14.93 13.12 14.88 13.12 14.88 13.17 14.84 13.17 14.84 13.22 14.79 13.22 14.79 13.31 14.74 13.31 14.74 13.36 14.7 13.36 14.7 13.4 14.65 13.4 14.65 13.45 14.61 13.45 14.61 13.49 14.56 13.49 14.56 13.59 14.51 13.59 14.51 13.63 14.47 13.63 14.47 13.68 14.42 13.68 14.42 13.73 14.37 13.73 14.37 13.77 14.33 13.77 14.33 13.86 14.28 13.86 14.28 13.91 14.23 13.91 14.23 13.96 14.19 13.96 14.19 14 14.14 14 14.14 14.05 14.1 14.05 14.1 14.14 14.05 14.14 14.05 14.19 14 14.19 14 14.23 13.96 14.23 13.96 14.28 13.91 14.28 13.91 14.33 13.86 14.33 13.86 14.42 13.82 14.42 13.82 14.47 13.77 14.47 13.77 14.51 13.72 14.51 13.72 14.56 13.68 14.56 13.68 14.61 13.63 14.61 13.63 14.65 13.59 14.65 13.59 14.74 13.54 14.74 13.54 14.79 13.49 14.79 13.49 14.84 13.45 14.84 13.45 14.88 13.4 14.88 13.4 14.93 13.35 14.93 13.35 15.02 13.31 15.02 13.31 15.07 13.26 15.07 13.26 15.12 13.21 15.12 13.21 15.16 13.17 15.16 13.17 15.21 13.12 15.21 13.12 15.3 13.07 15.3 13.07 15.35 13.03 15.35 13.03 15.39 12.98 15.39 12.98 15.44 12.94 15.44 12.94 15.49 12.89 15.49 12.89 15.58 12.84 15.58 12.84 15.63 12.8 15.63 12.8 15.67 12.75 15.67 12.75 15.72 12.71 15.72 12.71 15.77 12.66 15.77 12.66 15.86 12.61 15.86 12.61 15.9 12.57 15.9 12.57 15.95 12.52 15.95 12.52 16 12.47 16 12.47 16.04 12.43 16.04 12.43 16.09 12.38 16.09 12.38 16.18 12.33 16.18 12.33 16.23 12.29 16.23 12.29 16.27 12.24 16.27 12.24 16.32 12.19 16.32 12.19 16.37 12.15 16.37 12.15 16.41 12.1 16.41 12.1 16.46 12.06 16.46 12.06 16.51 12.01 16.51 12.01 16.55 11.96 16.55 11.96 16.6 11.92 16.6 11.92 16.65 11.87 16.65 11.87 16.69 11.82 16.69 11.82 16.74 11.78 16.74 11.78 16.79 11.73 16.79 11.73 16.83 11.69 16.83 11.69 16.88 11.64 16.88 11.64 16.93 11.59 16.93 11.59 16.97 11.54 16.97 11.54 17.02 11.5 17.02 11.5 17.06 11.45 17.06 11.45 17.11 11.41 17.11 11.41 17.16 11.36 17.16 11.36 17.2 11.31 17.2 11.31 17.25 11.27 17.25 11.27 17.3 11.22 17.3 11.22 17.34 11.18 17.34 11.18 17.39 11.13 17.39 11.13 17.43 11.08 17.43 11.08 17.48 11.04 17.48 11.04 17.53 10.99 17.53 10.99 17.57 10.94 17.57 10.94 17.62 10.9 17.62 10.9 17.67 10.85 17.67 10.85 17.71 10.8 17.71 10.8 17.76 10.76 17.76 10.76 17.81 10.66 17.81 10.66 17.85 10.62 17.85 10.62 17.9 10.53 17.9 10.53 17.95 10.48 17.95 10.48 17.99 10.39 17.99 10.39 18.04 10.29 18.04 10.29 18.08 10.25 18.08 10.25 18.13 10.15 18.13 10.15 18.18 10.11 18.18 10.11 18.22 10.02 18.22 10.02 18.27 9.92 18.27 9.92 18.32 9.88 18.32 9.88 18.36 9.78 18.36 9.78 18.41 9.69 18.41 9.69 18.45 9.6 18.45 9.6 18.5 9.46 18.5 9.46 18.55 9.37 18.55 9.37 18.59 9.23 18.59 9.23 18.64 9.09 18.64 9.09 18.69 8.9 18.69 8.9 18.73 8.72 18.73 8.72 18.78 8.48 18.78 8.48 18.83 8.16 18.83 8.16 18.87 7.84 18.87 7.84 18.92 7.51 18.92 7.51 18.96 0.05 18.96 0.05 18.92 0.09 18.92 0.09 18.87 0.14 18.87 0.14 18.83 0.18 18.83 0.18 18.78 0.23 18.78 0.23 18.73 0.28 18.73 0.28 18.64 0.32 18.64 0.32 18.59 0.37 18.59 0.37 18.55 0.42 18.55 0.42 18.5 0.46 18.5 0.46 18.45 0.51 18.45 0.51 18.36 0.56 18.36 0.56 18.32 0.6 18.32 0.6 18.27 0.65 18.27 0.65 18.22 0.69 18.22 0.69 18.18 0.74 18.18 0.74 18.08 0.79 18.08 0.79 18.04 0.83 18.04 0.83 17.99 0.88 17.99 0.88 17.95 0.93 17.95 0.93 17.9 0.97 17.9 0.97 17.81 1.02 17.81 1.02 17.76 1.07 17.76 1.07 17.71 1.11 17.71 1.11 17.67 1.16 17.67 1.16 17.62 1.21 17.62 1.21 17.53 1.25 17.53 1.25 17.48 1.3 17.48 1.3 17.43 1.34 17.43 1.34 17.39 1.39 17.39 1.39 17.34 1.44 17.34 1.44 17.3 1.48 17.3 1.48 17.2 1.53 17.2 1.53 17.16 1.58 17.16 1.58 17.11 1.62 17.11 1.62 17.06 1.67 17.06 1.67 17.02 1.72 17.02 1.72 16.93 1.76 16.93 1.76 16.88 1.81 16.88 1.81 16.83 1.85 16.83 1.85 16.79 1.9 16.79 1.9 16.74 1.95 16.74 1.95 16.65 1.99 16.65 1.99 16.6 2.04 16.6 2.04 16.55 2.09 16.55 2.09 16.51 2.13 16.51 2.13 16.46 2.18 16.46 2.18 16.37 2.23 16.37 2.23 16.32 2.27 16.32 2.27 16.27 2.32 16.27 2.32 16.23 2.36 16.23 2.36 16.18 2.41 16.18 2.41 16.09 2.46 16.09 2.46 16.04 2.5 16.04 2.5 16 2.55 16 2.55 15.95 2.6 15.95 2.6 15.9 2.64 15.9 2.64 15.81 2.69 15.81 2.69 15.77 2.73 15.77 2.73 15.72 2.78 15.72 2.78 15.67 2.83 15.67 2.83 15.63 2.87 15.63 2.87 15.58 2.92 15.58 2.92 15.49 2.97 15.49 2.97 15.44 3.01 15.44 3.01 15.39 3.06 15.39 3.06 15.35 3.11 15.35 3.11 15.3 3.15 15.3 3.15 15.21 3.2 15.21 3.2 15.16 3.25 15.16 3.25 15.12 3.29 15.12 3.29 15.07 3.34 15.07 3.34 15.02 3.38 15.02 3.38 14.93 3.43 14.93 3.43 14.88 3.48 14.88 3.48 14.84 3.52 14.84 3.52 14.79 3.57 14.79 3.57 14.74 3.62 14.74 3.62 14.65 3.66 14.65 3.66 14.61 3.71 14.61 3.71 14.56 3.76 14.56 3.76 14.51 3.8 14.51 3.8 14.47 3.85 14.47 3.85 14.38 3.9 14.38 3.9 14.33 3.94 14.33 3.94 14.28 3.99 14.28 3.99 14.23 4.03 14.23 4.03 14.19 4.08 14.19 4.08 14.14 4.13 14.14 4.13 14.05 4.17 14.05 4.17 14 4.22 14 4.22 13.96 4.27 13.96 4.27 13.91 4.31 13.91 4.31 13.86 4.36 13.86 4.36 13.77 4.4 13.77 4.4 13.73 4.45 13.73 4.45 13.68 4.5 13.68 4.5 13.63 4.54 13.63 4.54 13.59 4.59 13.59 4.59 13.49 4.64 13.49 4.64 13.45 4.68 13.45 4.68 13.4 4.73 13.4 4.73 13.36 4.78 13.36 4.78 13.31 4.82 13.31 4.82 13.22 4.87 13.22 4.87 13.17 4.92 13.17 4.92 13.12 4.96 13.12 4.96 13.08 5.01 13.08 5.01 13.03 5.05 13.03 5.05 12.94 5.1 12.94 5.1 12.89 5.15 12.89 5.15 12.85 5.19 12.85 5.19 12.8 5.24 12.8 5.24 12.75 5.29 12.75 5.29 12.66 5.33 12.66 5.33 12.61 5.38 12.61 5.38 12.57 5.42 12.57 5.42 12.52 5.47 12.52 5.47 12.47 5.52 12.47 5.52 12.43 5.56 12.43 5.56 12.33 5.61 12.33 5.61 12.29 5.66 12.29 5.66 12.24 5.7 12.24 5.7 12.2 5.75 12.2 5.75 12.15 5.8 12.15 5.8 12.06 5.84 12.06 5.84 12.01 5.89 12.01 5.89 11.96 5.93 11.96 5.93 11.92 5.98 11.92 5.98 11.87 6.03 11.87 6.03 11.78 6.07 11.78 6.07 11.73 6.12 11.73 6.12 11.69 6.17 11.69 6.17 11.64 6.21 11.64 6.21 11.59 6.26 11.59 6.26 11.5 6.31 11.5 6.31 11.45 6.35 11.45 6.35 11.41 6.4 11.41 6.4 11.36 6.45 11.36 6.45 11.31 6.49 11.31 6.49 11.22 6.54 11.22 6.54 11.18 6.58 11.18 6.58 11.13 6.63 11.13 6.63 11.08 6.68 11.08 6.68 11.04 6.72 11.04 6.72 10.94 6.77 10.94 6.77 10.9 6.82 10.9 6.82 10.85 6.86 10.85 6.86 10.8 6.91 10.8 6.91 10.76 6.96 10.76 6.96 10.71 7 10.71 7 10.62 7.05 10.62 7.05 10.57 7.09 10.57 7.09 10.53 7.14 10.53 7.14 10.48 7.19 10.48 7.19 10.43 7.23 10.43 7.23 10.34 7.28 10.34 7.28 10.29 7.33 10.29 7.33 10.25 7.37 10.25 7.37 10.2 7.42 10.2 7.42 10.15 7.46 10.15 7.46 10.06 7.51 10.06 7.51 10.02 7.56 10.02 7.56 9.97 7.61 9.97 7.61 9.92 7.65 9.92 7.65 9.88 7.7 9.88 7.7 9.78 7.74 9.78 7.74 9.74 7.79 9.74 7.79 9.69 7.84 9.69 7.84 9.64 7.88 9.64 7.88 9.6 7.93 9.6 7.93 9.51 7.97 9.51 7.97 9.46 8.02 9.46 8.02 9.41 8.07 9.41 8.07 9.37 8.11 9.37 8.11 9.32 8.16 9.32 8.16 9.27 8.21 9.27 8.21 9.18 8.25 9.18 8.25 9.13 8.3 9.13 8.3 9.09 8.35 9.09 8.35 9.04 8.39 9.04 8.39 9 8.44 9 8.44 8.9 8.48 8.9 8.48 8.86 8.53 8.86 8.53 8.81 8.58 8.81 8.58 8.76 8.62 8.76 8.62 8.72 8.67 8.72 8.67 8.63 8.72 8.63 8.72 8.58 8.76 8.58 8.76 8.53 8.81 8.53 8.81 8.48 8.86 8.48 8.86 8.44 8.9 8.44 8.9 8.35 8.95 8.35 8.95 8.3 8.99 8.3 8.99 8.25 9.04 8.25 9.04 8.21 9.09 8.21 9.09 8.16 9.13 8.16 9.13 8.07 9.18 8.07 9.18 8.02 9.23 8.02 9.23 7.98 9.27 7.98 9.27 7.93 9.32 7.93 9.32 7.88 9.37 7.88 9.37 7.79 9.41 7.79 9.41 7.74 9.46 7.74 9.46 7.7 9.51 7.7 9.51 7.65 9.55 7.65 9.55 7.61 9.6 7.61 9.6 7.56 9.64 7.56 9.64 7.47 9.69 7.47 9.69 7.42 9.74 7.42 9.74 7.37 9.78 7.37 9.78 7.33 9.83 7.33 9.83 7.28 9.88 7.28 9.88 7.19 9.92 7.19 9.92 7.14 9.97 7.14 9.97 7.09 10.02 7.09 10.02 7.05 10.06 7.05 10.06 7 10.11 7 10.11 6.91 10.15 6.91 10.15 6.86 10.2 6.86 10.2 6.82 10.25 6.82 10.25 6.77 10.29 6.77 10.29 6.72 10.34 6.72 10.34 6.63 10.39 6.63 10.39 6.58 10.43 6.58 10.43 6.54 10.48 6.54 10.48 6.49 10.53 6.49 10.53 6.45 10.57 6.45 10.57 6.35 10.62 6.35 10.62 6.31 10.66 6.31 10.66 6.26 10.71 6.26 10.71 6.21 10.76 6.21 10.76 6.17 10.8 6.17 10.8 6.12 10.85 6.12 10.85 6.03 10.9 6.03 10.9 5.98 10.94 5.98 10.94 5.94 10.99 5.94 10.99 5.89 11.04 5.89 11.04 5.84 11.08 5.84 11.08 5.75 11.13 5.75 11.13 5.7 11.18 5.7 11.18 5.66 11.22 5.66 11.22 5.61 11.27 5.61 11.27 5.56 11.31 5.56 11.31 5.47 11.36 5.47 11.36 5.43 11.41 5.43 11.41 5.38 11.45 5.38 11.45 5.33 11.5 5.33 11.5 5.29 11.54 5.29 11.54 5.19 11.59 5.19 11.59 5.15 11.64 5.15 11.64 5.1 11.69 5.1 11.69 5.05 11.73 5.05 11.73 5.01 11.78 5.01 11.78 4.92 11.82 4.92 11.82 4.87 11.87 4.87 11.87 4.82 11.92 4.82 11.92 4.78 11.96 4.78 11.96 4.73 12.01 4.73 12.01 4.64 12.06 4.64 12.06 4.59 12.1 4.59 12.1 4.54 12.15 4.54 12.15 4.5 12.19 4.5 12.19 4.45 12.24 4.45 12.24 4.41 12.29 4.41 12.29 4.31 12.33 4.31 12.33 4.27 12.38 4.27 12.38 4.22 12.43 4.22 12.43 4.17 12.47 4.17 12.47 4.13 12.52 4.13 12.52 4.04 12.57 4.04 12.57 3.99 12.61 3.99 12.61 3.94 12.66 3.94 12.66 3.9 12.71 3.9 12.71 3.85 12.75 3.85 12.75 3.76 12.8 3.76 12.8 3.71 12.84 3.71 12.84 3.66 12.89 3.66 12.89 3.62 12.94 3.62 12.94 3.57 12.98 3.57 12.98 3.48 13.03 3.48 13.03 3.43 13.07 3.43 13.07 3.38 13.12 3.38 13.12 3.34 13.17 3.34 13.17 3.29 13.21 3.29 13.21 3.2 13.26 3.2 13.26 3.15 13.31 3.15 13.31 3.11 13.35 3.11 13.35 3.06 13.4 3.06 13.4 3.02 13.45 3.02 13.45 2.92 13.49 2.92 13.49 2.88 13.54 2.88 13.54 2.83 13.59 2.83 13.59 2.78 13.63 2.78 13.63 2.74 13.68 2.74 13.68 2.69 13.72 2.69 13.72 2.64 13.77 2.64 13.77 2.6 13.82 2.6 13.82 2.55 13.86 2.55 13.86 2.5 13.91 2.5 13.91 2.41 13.96 2.41 13.96 2.37 14 2.37 14 2.32 14.05 2.32 14.05 2.27 14.1 2.27 14.1 2.23 14.14 2.23 14.14 2.18 14.19 2.18 14.19 2.13 14.23 2.13 14.23 2.09 14.28 2.09 14.28 2.04 14.33 2.04 14.33 1.95 14.42 1.95 14.42 1.9 14.47 1.9 14.47 1.85 14.51 1.85 14.51 1.81 14.56 1.81 14.56 1.76 14.61 1.76 14.61 1.72 14.7 1.72 14.7 1.67 14.74 1.67 14.74 1.62 14.79 1.62 14.79 1.58 14.84 1.58 14.84 1.53 14.88 1.53 14.88 1.48 14.98 1.48 14.98 1.44 15.02 1.44 15.02 1.39 15.07 1.39 15.07 1.35 15.12 1.35 15.12 1.3 15.16 1.3 15.16 1.25 15.21 1.25 15.21 1.21 15.3 1.21 15.3 1.16 15.35 1.16 15.35 1.11 15.44 1.11 15.44 1.07 15.49 1.07 15.49 1.02 15.58 1.02 15.58 0.97 15.63 0.97 15.63 0.93 15.72 0.93 15.72 0.88 15.77 0.88 15.77 0.83 15.86 0.83 15.86 0.79 15.9 0.79 15.9 0.74 16 0.74 16 0.7 16.04 0.7 16.04 0.65 16.14 0.65 16.14 0.6 16.18 0.6 16.18 0.56 16.32 0.56 16.32 0.51 16.46 0.51 16.46 0.47 16.6 0.47 16.6 0.42 16.74 0.42 16.74 0.37 16.92 0.37 16.92 0.33 17.06 0.33 17.06 0.28 17.25 0.28 17.25 0.23 17.39 0.23 17.39 0.19 17.85 0.19 17.85 0.14 18.27 0.14 18.27 0.09 18.69 0.09 18.69 0.05 20.12 0.05"/><polyline class="cls-2" points="0 0.05 0 0 4.96 0 4.96 0.05 6.21 0.05 6.21 0.09 6.58 0.09 6.58 0.14 6.96 0.14 6.96 0.19 7.33 0.19 7.33 0.23 7.51 0.23 7.51 0.28 7.65 0.28 7.65 0.33 7.79 0.33 7.79 0.37 7.97 0.37 7.97 0.42 8.11 0.42 8.11 0.47 8.25 0.47 8.25 0.51 8.39 0.51 8.39 0.56 8.48 0.56 8.48 0.6 8.58 0.6 8.58 0.65 8.62 0.65 8.62 0.7 8.72 0.7 8.72 0.74 8.81 0.74 8.81 0.79 8.86 0.79 8.86 0.83 8.95 0.83 8.95 0.88 9.04 0.88 9.04 0.93 9.09 0.93 9.09 0.97 9.18 0.97 9.18 1.02 9.23 1.02 9.23 1.07 9.32 1.07 9.32 1.11 9.37 1.11 9.37 1.16 9.41 1.16 9.41 1.21 9.46 1.21 9.46 1.25 9.51 1.25 9.51 1.3 9.55 1.3 9.55 1.35 9.6 1.35 9.6 1.39 9.64 1.39 9.64 1.44 9.69 1.44 9.69 1.48 9.74 1.48 9.74 1.53 9.78 1.53 9.78 1.58 9.83 1.58 9.83 1.62 9.88 1.62 9.88 1.67 9.92 1.67 9.92 1.72 9.97 1.72 9.97 1.76 10.02 1.76 10.02 1.81 10.06 1.81 10.06 1.85 10.11 1.85 10.11 1.9 10.15 1.9 10.15 1.95 10.2 1.95 10.2 1.99 10.25 1.99 10.25 2.04 10.29 2.04 10.29 2.09 10.34 2.09 10.34 2.13 10.39 2.13 10.39 2.18 10.43 2.18 10.43 2.23 10.48 2.23 10.48 2.27 10.53 2.27 10.53 2.32 10.57 2.32 10.57 2.37 10.62 2.37 10.62 2.41 10.66 2.41 10.66 2.46 10.71 2.46 10.71 2.55 10.76 2.55 10.76 2.6 10.8 2.6 10.8 2.64 10.85 2.64 10.85 2.69 10.9 2.69 10.9 2.74 10.94 2.74 10.94 2.78 10.99 2.78 10.99 2.88 11.04 2.88 11.04 2.92 11.08 2.92 11.08 2.97 11.13 2.97 11.13 3.02 11.18 3.02 11.18 3.06 11.22 3.06 11.22 3.15 11.27 3.15 11.27 3.2 11.31 3.2 11.31 3.25 11.36 3.25 11.36 3.29 11.41 3.29 11.41 3.34 11.45 3.34 11.45 3.43 11.5 3.43 11.5 3.48 11.54 3.48 11.54 3.52 11.59 3.52 11.59 3.57 11.64 3.57 11.64 3.62 11.69 3.62 11.69 3.71 11.73 3.71 11.73 3.76 11.78 3.76 11.78 3.8 11.82 3.8 11.82 3.85 11.87 3.85 11.87 3.9 11.92 3.9 11.92 3.94 11.96 3.94 11.96 4.04 12.01 4.04 12.01 4.08 12.06 4.08 12.06 4.13 12.1 4.13 12.1 4.17 12.15 4.17 12.15 4.22 12.19 4.22 12.19 4.31 12.24 4.31 12.24 4.36 12.29 4.36 12.29 4.41 12.33 4.41 12.33 4.45 12.38 4.45 12.38 4.5 12.43 4.5 12.43 4.59 12.47 4.59 12.47 4.64 12.52 4.64 12.52 4.68 12.57 4.68 12.57 4.73 12.61 4.73 12.61 4.78 12.66 4.78 12.66 4.87 12.71 4.87 12.71 4.92 12.75 4.92 12.75 4.96 12.8 4.96 12.8 5.01 12.84 5.01 12.84 5.05 12.89 5.05 12.89 5.1 12.94 5.1 12.94 5.19 12.98 5.19 12.98 5.24 13.03 5.24 13.03 5.29 13.07 5.29 13.07 5.33 13.12 5.33 13.12 5.38 13.17 5.38 13.17 5.47 13.21 5.47 13.21 5.52 13.26 5.52 13.26 5.56 13.31 5.56 13.31 5.61 13.35 5.61 13.35 5.66 13.4 5.66 13.4 5.75 13.45 5.75 13.45 5.8 13.49 5.8 13.49 5.84 13.54 5.84 13.54 5.89 13.59 5.89 13.59 5.94 13.63 5.94 13.63 6.03 13.68 6.03 13.68 6.07 13.72 6.07 13.72 6.12 13.77 6.12 13.77 6.17 13.82 6.17 13.82 6.21 13.86 6.21 13.86 6.26 13.91 6.26 13.91 6.35 13.96 6.35 13.96 6.4 14 6.4 14 6.45 14.05 6.45 14.05 6.49 14.1 6.49 14.1 6.54 14.14 6.54 14.14 6.63 14.19 6.63 14.19 6.68 14.23 6.68 14.23 6.72 14.28 6.72 14.28 6.77 14.33 6.77 14.33 6.82 14.37 6.82 14.37 6.91 14.42 6.91 14.42 6.96 14.47 6.96 14.47 7 14.51 7 14.51 7.05 14.56 7.05 14.56 7.09 14.61 7.09 14.61 7.19 14.65 7.19 14.65 7.23 14.7 7.23 14.7 7.28 14.74 7.28 14.74 7.33 14.79 7.33 14.79 7.37 14.84 7.37 14.84 7.42 8.25 7.42 8.25 7.37 7.88 7.37 7.88 7.33 7.51 7.33 7.51 7.28 7.37 7.28 7.37 7.23 7.23 7.23 7.23 7.19 7.09 7.19 7.09 7.14 6.91 7.14 6.91 7.09 6.77 7.09 6.77 7.05 6.63 7.05 6.63 7 6.45 7 6.45 6.96 6.4 6.96 6.4 6.91 6.35 6.91 6.35 6.86 6.26 6.86 6.26 6.82 6.21 6.82 6.21 6.77 6.12 6.77 6.12 6.72 6.07 6.72 6.07 6.68 6.03 6.68 6.03 6.63 5.93 6.63 5.93 6.58 5.89 6.58 5.89 6.54 5.8 6.54 5.8 6.49 5.75 6.49 5.75 6.45 5.66 6.45 5.66 6.4 5.61 6.4 5.61 6.35 5.56 6.35 5.56 6.31 5.52 6.31 5.52 6.26 5.47 6.26 5.47 6.21 5.38 6.21 5.38 6.17 5.33 6.17 5.33 6.12 5.29 6.12 5.29 6.07 5.24 6.07 5.24 6.03 5.19 6.03 5.19 5.98 5.1 5.98 5.1 5.94 5.05 5.94 5.05 5.89 5.01 5.89 5.01 5.84 4.96 5.84 4.96 5.8 4.87 5.8 4.87 5.7 4.82 5.7 4.82 5.66 4.78 5.66 4.78 5.61 4.73 5.61 4.73 5.56 4.68 5.56 4.68 5.52 4.64 5.52 4.64 5.47 4.59 5.47 4.59 5.43 4.54 5.43 4.54 5.38 4.5 5.38 4.5 5.29 4.45 5.29 4.45 5.24 4.4 5.24 4.4 5.19 4.36 5.19 4.36 5.15 4.31 5.15 4.31 5.1 4.27 5.1 4.27 5.05 4.22 5.05 4.22 5.01 4.17 5.01 4.17 4.96 4.13 4.96 4.13 4.87 4.08 4.87 4.08 4.82 4.03 4.82 4.03 4.78 3.99 4.78 3.99 4.73 3.94 4.73 3.94 4.68 3.9 4.68 3.9 4.59 3.85 4.59 3.85 4.54 3.8 4.54 3.8 4.5 3.76 4.5 3.76 4.45 3.71 4.45 3.71 4.41 3.66 4.41 3.66 4.31 3.62 4.31 3.62 4.27 3.57 4.27 3.57 4.22 3.52 4.22 3.52 4.17 3.48 4.17 3.48 4.13 3.43 4.13 3.43 4.04 3.38 4.04 3.38 3.99 3.34 3.99 3.34 3.94 3.29 3.94 3.29 3.9 3.25 3.9 3.25 3.85 3.2 3.85 3.2 3.76 3.15 3.76 3.15 3.71 3.11 3.71 3.11 3.66 3.06 3.66 3.06 3.62 3.01 3.62 3.01 3.57 2.97 3.57 2.97 3.52 2.92 3.52 2.92 3.43 2.87 3.43 2.87 3.38 2.83 3.38 2.83 3.34 2.78 3.34 2.78 3.29 2.73 3.29 2.73 3.25 2.69 3.25 2.69 3.15 2.64 3.15 2.64 3.11 2.6 3.11 2.6 3.06 2.55 3.06 2.55 3.02 2.5 3.02 2.5 2.97 2.46 2.97 2.46 2.88 2.41 2.88 2.41 2.83 2.36 2.83 2.36 2.78 2.32 2.78 2.32 2.74 2.27 2.74 2.27 2.69 2.23 2.69 2.23 2.6 2.18 2.6 2.18 2.55 2.13 2.55 2.13 2.5 2.09 2.5 2.09 2.46 2.04 2.46 2.04 2.41 1.99 2.41 1.99 2.37 1.95 2.37 1.95 2.27 1.9 2.27 1.9 2.23 1.85 2.23 1.85 2.18 1.81 2.18 1.81 2.13 1.76 2.13 1.76 2.09 1.72 2.09 1.72 1.99 1.67 1.99 1.67 1.95 1.62 1.95 1.62 1.9 1.58 1.9 1.58 1.85 1.53 1.85 1.53 1.81 1.48 1.81 1.48 1.72 1.44 1.72 1.44 1.67 1.39 1.67 1.39 1.62 1.34 1.62 1.34 1.58 1.3 1.58 1.3 1.53 1.25 1.53 1.25 1.44 1.21 1.44 1.21 1.39 1.16 1.39 1.16 1.35 1.11 1.35 1.11 1.3 1.07 1.3 1.07 1.25 1.02 1.25 1.02 1.21 0.97 1.21 0.97 1.11 0.93 1.11 0.93 1.07 0.88 1.07 0.88 1.02 0.83 1.02 0.83 0.97 0.79 0.97 0.79 0.93 0.74 0.93 0.74 0.83 0.69 0.83 0.69 0.79 0.65 0.79 0.65 0.74 0.6 0.74 0.6 0.7 0.56 0.7 0.56 0.65 0.51 0.65 0.51 0.56 0.46 0.56 0.46 0.51 0.42 0.51 0.42 0.47 0.37 0.47 0.37 0.42 0.32 0.42 0.32 0.37 0.28 0.37 0.28 0.28 0.23 0.28 0.23 0.23 0.18 0.23 0.18 0.19 0.14 0.19 0.14 0.14 0.09 0.14 0.09 0.09 0.05 0.09 0.05 0.05 0 0.05"/><polyline class="cls-3" points="17.16 18.96 18.22 18.92 19.2 18.83 19.7 18.69 20.12 18.55 21.05 17.99 21.84 17.25 22.67 16.32 25.87 12.71 19.61 12.57 18.5 12.61 17.53 12.75 17.06 12.85 16.6 12.98 15.72 13.59 14.88 14.28 14.05 15.21 10.9 18.87 17.16 18.96"/></svg>